<svg xmlns="http://www.w3.org/2000/svg" width="960" height="190" viewBox="0 0 960 190" role="img" aria-label="LPPEH Registry Scraper: Reliable collection of public registry data">
  <defs>
    <linearGradient id="bg" x1="0" y1="0" x2="1" y2="1">
      <stop offset="0" stop-color="#0b1526"/>
      <stop offset="1" stop-color="#182744"/>
    </linearGradient>
  </defs>
  <rect x="1" y="1" width="958" height="188" rx="15" fill="url(#bg)" stroke="#2a4059" stroke-width="2"/>
  <rect x="1" y="17" width="7" height="156" rx="3" fill="#38bdf8"/>
  <text x="35" y="39" font-family="Segoe UI, Arial, sans-serif" font-size="16" font-weight="700" letter-spacing="2" fill="#38bdf8">PROJECT 02  /  DATA ENGINEERING</text>
  <text x="35" y="91" font-family="Segoe UI, Arial, sans-serif" font-size="38" font-weight="700" fill="#f5f8fc">LPPEH Registry Scraper</text>
  <text x="35" y="126" font-family="Segoe UI, Arial, sans-serif" font-size="22" fill="#c4d5e5">Reliable collection of public registry data</text>
  <text x="35" y="162" font-family="Segoe UI, Arial, sans-serif" font-size="17" fill="#8eabc1">Python  /  CLI  /  CSV</text>

          <rect x="717" y="39" width="181" height="125" rx="12" fill="#12283c" stroke="#3c6680" stroke-width="2"/>
          <rect x="731" y="54" width="153" height="18" rx="5" fill="#1b4560"/>
          <circle cx="746" cy="63" r="4" fill="#38bdf8"/>
          <rect x="761" y="60" width="86" height="6" rx="3" fill="#78aeca"/>
          <g fill="#38bdf8"><circle cx="743" cy="91" r="4"/><circle cx="743" cy="117" r="4"/><circle cx="743" cy="143" r="4"/></g>
          <g fill="#6b93a9"><rect x="758" y="87" width="82" height="7" rx="3"/><rect x="758" y="113" width="110" height="7" rx="3"/><rect x="758" y="139" width="69" height="7" rx="3"/></g>
          <path d="M846 91h28m-10-9 10 9-10 9" fill="none" stroke="#38bdf8" stroke-width="3" stroke-linecap="round" stroke-linejoin="round"/>

</svg>
